<svg width="22" height="22" viewBox="0 0 22 22" fill="none" xmlns="http://www.w3.org/2000/svg">
<g clip-path="url(#clip0_1_251)">
<path fill-rule="evenodd" clip-rule="evenodd" d="M0 9.77778C0 7.75274 1.64163 6.11111 3.66667 6.11111H18.3333C20.3584 6.11111 22 7.75274 22 9.77778V12.2222C22 17.6224 17.6224 22 12.2222 22H9.77778C4.37766 22 0 17.6224 0 12.2222V9.77778ZM17.1111 11.6111C17.1111 12.6236 16.2903 13.4444 15.2778 13.4444C14.2653 13.4444 13.4444 12.6236 13.4444 11.6111C13.4444 10.5986 14.2653 9.77778 15.2778 9.77778C16.2903 9.77778 17.1111 10.5986 17.1111 11.6111ZM6.72222 13.4444C7.73475 13.4444 8.55556 12.6236 8.55556 11.6111C8.55556 10.5986 7.73475 9.77778 6.72222 9.77778C5.7097 9.77778 4.88889 10.5986 4.88889 11.6111C4.88889 12.6236 5.7097 13.4444 6.72222 13.4444Z" fill="white"/>
<mask id="mask0_1_251" style="mask-type:luminance" maskUnits="userSpaceOnUse" x="0" y="6" width="22" height="16">
<path fill-rule="evenodd" clip-rule="evenodd" d="M0 9.77778C0 7.75274 1.64163 6.11111 3.66667 6.11111H18.3333C20.3584 6.11111 22 7.75274 22 9.77778V12.2222C22 17.6224 17.6224 22 12.2222 22H9.77778C4.37766 22 0 17.6224 0 12.2222V9.77778ZM17.1111 11.6111C17.1111 12.6236 16.2903 13.4444 15.2778 13.4444C14.2653 13.4444 13.4444 12.6236 13.4444 11.6111C13.4444 10.5986 14.2653 9.77778 15.2778 9.77778C16.2903 9.77778 17.1111 10.5986 17.1111 11.6111ZM6.72222 13.4444C7.73475 13.4444 8.55556 12.6236 8.55556 11.6111C8.55556 10.5986 7.73475 9.77778 6.72222 9.77778C5.7097 9.77778 4.88889 10.5986 4.88889 11.6111C4.88889 12.6236 5.7097 13.4444 6.72222 13.4444Z" fill="white"/>
</mask>
<g mask="url(#mask0_1_251)">
<path d="M3.66665 3.66667C0.29158 3.66667 -2.44446 6.40271 -2.44446 9.77778H2.44443C2.44443 9.10277 2.99164 8.55556 3.66665 8.55556V3.66667ZM18.3333 3.66667H3.66665V8.55556H18.3333V3.66667ZM24.4444 9.77778C24.4444 6.40271 21.7084 3.66667 18.3333 3.66667V8.55556C19.0084 8.55556 19.5555 9.10277 19.5555 9.77778H24.4444ZM24.4444 12.2222V9.77778H19.5555V12.2222H24.4444ZM12.2222 24.4444C18.9723 24.4444 24.4444 18.9723 24.4444 12.2222H19.5555C19.5555 16.2723 16.2723 19.5556 12.2222 19.5556V24.4444ZM9.77776 24.4444H12.2222V19.5556H9.77776V24.4444ZM-2.44446 12.2222C-2.44446 18.9723 3.02761 24.4444 9.77776 24.4444V19.5556C5.72767 19.5556 2.44443 16.2723 2.44443 12.2222H-2.44446ZM-2.44446 9.77778V12.2222H2.44443V9.77778H-2.44446ZM15.2778 15.8889C17.6403 15.8889 19.5555 13.9737 19.5555 11.6111H14.6667C14.6667 11.2736 14.9403 11 15.2778 11V15.8889ZM11 11.6111C11 13.9737 12.9152 15.8889 15.2778 15.8889V11C15.6152 11 15.8889 11.2736 15.8889 11.6111H11ZM15.2778 7.33333C12.9152 7.33333 11 9.24856 11 11.6111H15.8889C15.8889 11.9486 15.6152 12.2222 15.2778 12.2222V7.33333ZM19.5555 11.6111C19.5555 9.24856 17.6403 7.33333 15.2778 7.33333V12.2222C14.9403 12.2222 14.6667 11.9486 14.6667 11.6111H19.5555ZM6.1111 11.6111C6.1111 11.2736 6.3847 11 6.72221 11V15.8889C9.08476 15.8889 11 13.9737 11 11.6111H6.1111ZM6.72221 12.2222C6.3847 12.2222 6.1111 11.9486 6.1111 11.6111H11C11 9.24856 9.08476 7.33333 6.72221 7.33333V12.2222ZM7.33332 11.6111C7.33332 11.9486 7.05971 12.2222 6.72221 12.2222V7.33333C4.35965 7.33333 2.44443 9.24856 2.44443 11.6111H7.33332ZM6.72221 11C7.05971 11 7.33332 11.2736 7.33332 11.6111H2.44443C2.44443 13.9737 4.35965 15.8889 6.72221 15.8889V11Z" fill="white"/>
</g>
<path d="M15.8889 7.11111C15.8889 7.90885 15.2422 8.55556 14.4444 8.55556H7.55553C6.75779 8.55556 6.11108 7.90885 6.11108 7.11111V6.11111C6.11108 3.41105 8.29991 1.22222 11 1.22222C13.7 1.22222 15.8889 3.41105 15.8889 6.11111V7.11111Z" stroke="white" stroke-width="2" stroke-linejoin="round"/>
</g>
<defs>
<clipPath id="clip0_1_251">
<rect width="22" height="22" fill="white"/>
</clipPath>
</defs>
</svg>
