<svg width="22" height="22" viewBox="0 0 22 22" fill="none" xmlns="http://www.w3.org/2000/svg">
<g clip-path="url(#clip0_1_260)">
<path fill-rule="evenodd" clip-rule="evenodd" d="M0 11.2446C0 7.8695 2.73604 5.13346 6.11111 5.13346H15.8889C19.2639 5.13346 22 7.8695 22 11.2446V16.1335C22 19.5085 19.2639 22.2446 15.8889 22.2446H6.11111C2.73604 22.2446 0 19.5085 0 16.1335V11.2446ZM6.11111 10.0223C6.78612 10.0223 7.33333 10.5696 7.33333 11.2446V12.4668H8.55556C9.23056 12.4668 9.77778 13.014 9.77778 13.689C9.77778 14.364 9.23056 14.9112 8.55556 14.9112H7.33333V16.1335C7.33333 16.8085 6.78612 17.3557 6.11111 17.3557C5.4361 17.3557 4.88889 16.8085 4.88889 16.1335V14.9112H3.66667C2.99166 14.9112 2.44444 14.364 2.44444 13.689C2.44444 13.014 2.99166 12.4668 3.66667 12.4668H4.88889V11.2446C4.88889 10.5696 5.4361 10.0223 6.11111 10.0223ZM14.6667 11.2446C14.6667 10.5696 15.2139 10.0223 15.8889 10.0223C16.5639 10.0223 17.1111 10.5696 17.1111 11.2446C17.1111 11.9196 16.5639 12.4668 15.8889 12.4668C15.2139 12.4668 14.6667 11.9196 14.6667 11.2446ZM18.3333 12.4668C17.6583 12.4668 17.1111 13.014 17.1111 13.689C17.1111 14.364 17.6583 14.9112 18.3333 14.9112C19.0084 14.9112 19.5556 14.364 19.5556 13.689C19.5556 13.014 19.0084 12.4668 18.3333 12.4668ZM14.6667 16.1335C14.6667 15.4584 15.2139 14.9112 15.8889 14.9112C16.5639 14.9112 17.1111 15.4584 17.1111 16.1335C17.1111 16.8085 16.5639 17.3557 15.8889 17.3557C15.2139 17.3557 14.6667 16.8085 14.6667 16.1335ZM13.4444 12.4668C12.7694 12.4668 12.2222 13.014 12.2222 13.689C12.2222 14.364 12.7694 14.9112 13.4444 14.9112C14.1195 14.9112 14.6667 14.364 14.6667 13.689C14.6667 13.014 14.1195 12.4668 13.4444 12.4668Z" fill="white"/>
<path fill-rule="evenodd" clip-rule="evenodd" d="M11.0001 0C11.6751 0 12.2223 0.547207 12.2223 1.22222V3.66667C12.2223 4.07532 12.0181 4.45693 11.6781 4.68362L8.01144 7.12806C7.44979 7.50249 6.69095 7.35073 6.31652 6.78908C5.94208 6.22743 6.09386 5.46859 6.6555 5.09416L9.77791 3.01256V1.22222C9.77791 0.547207 10.3251 0 11.0001 0Z" fill="white"/>
</g>
<defs>
<clipPath id="clip0_1_260">
<rect width="22" height="22" fill="white"/>
</clipPath>
</defs>
</svg>
