<svg width="22" height="22" viewBox="0 0 22 22" fill="none" xmlns="http://www.w3.org/2000/svg">
<g clip-path="url(#clip0_1_265)">
<path fill-rule="evenodd" clip-rule="evenodd" d="M0 6.11111C0 2.73604 2.73604 0 6.11111 0H15.8889C19.2639 0 22 2.73604 22 6.11111V15.8889C22 19.2639 19.2639 22 15.8889 22H6.11111C2.73604 22 0 19.2639 0 15.8889V6.11111ZM17.1111 13.4444C17.1111 14.1195 16.5639 14.6667 15.8889 14.6667C15.2139 14.6667 14.6667 14.1195 14.6667 13.4444V9.06181L6.97536 16.7531C6.49804 17.2304 5.72418 17.2304 5.24687 16.7531C4.76956 16.2758 4.76956 15.5019 5.24687 15.0247L12.9382 7.33333H8.55556C7.88053 7.33333 7.33333 6.78613 7.33333 6.11111C7.33333 5.4361 7.88053 4.88889 8.55556 4.88889H15.8889C16.0546 4.88889 16.2127 4.92188 16.3568 4.98163C16.5009 5.04128 16.6359 5.12969 16.7531 5.24687C16.8707 5.36442 16.9593 5.49995 17.019 5.6446C17.0764 5.78376 17.109 5.93587 17.111 6.09532C17.1111 6.10058 17.1111 6.10584 17.1111 6.11111V6.11301" fill="white"/>
</g>
<defs>
<clipPath id="clip0_1_265">
<rect width="22" height="22" fill="white"/>
</clipPath>
</defs>
</svg>
