<svg width="22" height="22" viewBox="0 0 22 22" fill="none" xmlns="http://www.w3.org/2000/svg">
<path fill-rule="evenodd" clip-rule="evenodd" d="M12.2222 0H6.11111C5.77367 0 5.44262 0.0273495 5.12005 0.0799528L9.61674 7.94916C9.8329 8.32744 9.83135 8.79219 9.61267 9.16903C9.39399 9.54585 8.99124 9.77778 8.55556 9.77778H0V15.8889H3.66667V12.2222C3.66667 11.5472 4.21388 11 4.88889 11C5.5639 11 6.11111 11.5472 6.11111 12.2222V15.8889H9.77778C10.4528 15.8889 11 16.4361 11 17.1111C11 17.7861 10.4528 18.3333 9.77778 18.3333H6.11111V22H13.444C12.6768 20.9786 12.2222 19.7091 12.2222 18.3333C12.2222 14.9583 14.9583 12.2222 18.3333 12.2222C19.7091 12.2222 20.9786 12.6768 22 13.444V9.77778H13.4444C12.7694 9.77778 12.2222 9.23058 12.2222 8.55556V0ZM22 7.33333V6.11111C22 2.73604 19.2639 0 15.8889 0H14.6667V7.33333H22ZM2.81131 0.96659C1.12023 2.05353 0 3.95149 0 6.11111V7.33333H6.44945L2.81131 0.96659ZM17.2698 21.8433C19.536 21.32 21.32 19.536 21.8433 17.2698C21.3875 15.7634 19.9885 14.6667 18.3333 14.6667C16.3082 14.6667 14.6667 16.3082 14.6667 18.3333C14.6667 19.9885 15.7634 21.3875 17.2698 21.8433ZM3.66667 21.4916C2.25691 20.8756 1.12445 19.743 0.508498 18.3333H3.66667V21.4916Z" fill="#FFFFFF"/>
</svg>
