<svg width="15.000000" height="15.000000" viewBox="0 0 15 15" fill="none" xmlns="http://www.w3.org/2000/svg" xmlns:xlink="http://www.w3.org/1999/xlink">
	<desc>
			Created with Pixso.
	</desc>
	<defs>
		<clipPath id="clip1_162">
			<rect id="small6 1" rx="0.000000" width="14.000000" height="14.000000" transform="translate(0.500000 0.500000)" fill="white" fill-opacity="0"/>
		</clipPath>
		<linearGradient x1="197.394745" y1="119.867218" x2="505.275146" y2="489.798706" id="paint_linear_1_164_0" gradientUnits="userSpaceOnUse">
			<stop stop-color="#C3862C"/>
			<stop offset="1.000000" stop-color="#986D29"/>
		</linearGradient>
		<linearGradient x1="9.997345" y1="140.649048" x2="538.402588" y2="542.402588" id="paint_linear_1_165_0" gradientUnits="userSpaceOnUse">
			<stop stop-color="#FDE64E"/>
			<stop offset="1.000000" stop-color="#FCC013"/>
		</linearGradient>
	</defs>
	<rect id="small6 1" rx="0.000000" width="14.000000" height="14.000000" transform="translate(0.500000 0.500000)" fill="#FFFFFF" fill-opacity="0"/>
	<g clip-path="url(#clip1_162)">
		<path id="Vector" d="M7.63 4.38C7.77 4.38 7.88 4.49 7.88 4.63L7.88 8.52L7.76 8.54C7.63 8.56 7.51 8.6 7.4 8.67C7.3 8.73 7.21 8.81 7.14 8.9L6.74 9.42C6.59 9.62 6.52 9.87 6.55 10.12L6.65 10.85L1.65 10.85C1.52 10.85 1.41 10.74 1.4 10.61L1.4 4.63C1.4 4.49 1.51 4.38 1.65 4.38L7.63 4.38ZM5.76 6.25C5.5 6.29 5.26 6.39 5.06 6.56L4.21 6.56C4.02 6.39 3.78 6.28 3.52 6.24C3.14 6.25 2.81 6.53 2.73 6.91C2.73 6.91 2.5 8.28 2.49 8.62C2.47 8.96 2.81 8.98 2.92 8.98C3.1 8.98 3.28 8.91 3.41 8.78C3.59 8.56 3.75 8.31 3.88 8.05L5.39 8.05C5.52 8.31 5.67 8.56 5.85 8.78C5.98 8.91 6.16 8.98 6.34 8.98C6.45 8.98 6.81 8.98 6.78 8.62C6.75 8.26 6.56 6.92 6.54 6.91C6.47 6.53 6.14 6.26 5.75 6.25L5.76 6.25ZM9 3.01C9.14 3.01 9.25 3.12 9.25 3.26L9.25 6.47C9.17 6.49 9.09 6.52 9.02 6.56C8.91 6.63 8.82 6.71 8.74 6.8L8.63 6.94L8.63 3.88C8.63 3.74 8.52 3.63 8.39 3.63L2.77 3.63L2.77 3.26C2.77 3.12 2.88 3.01 3.02 3.01L9 3.01ZM10.38 1.64C10.51 1.64 10.62 1.75 10.62 1.88L10.62 6.27L10 6.36L10 2.51C10 2.37 9.89 2.26 9.75 2.26L4.14 2.26L4.14 1.88C4.14 1.75 4.26 1.64 4.39 1.64L10.38 1.64Z" fill="#FFFFFF" fill-opacity="1.000000" fill-rule="evenodd"/>
		<path id="Vector" d="M10.87 7L9.43 7.19C9.4 7.2 9.37 7.21 9.35 7.22C9.33 7.23 9.31 7.25 9.29 7.27L8.9 7.79C8.87 7.83 8.85 7.89 8.86 7.94L9.02 9.11L7.83 9.27C7.81 9.28 7.78 9.29 7.76 9.3C7.74 9.31 7.72 9.33 7.7 9.35L7.31 9.87C7.27 9.91 7.26 9.97 7.27 10.02L7.46 11.45C7.47 11.5 7.5 11.55 7.54 11.59C7.58 11.62 7.64 11.63 7.69 11.62L9.33 11.39L9.56 13.03C9.56 13.08 9.59 13.13 9.63 13.16C9.68 13.2 9.73 13.21 9.78 13.2L11.23 13.01C11.28 13 11.33 12.97 11.36 12.93C11.36 12.93 11.74 12.43 11.76 12.41C11.77 12.39 11.78 12.37 11.79 12.34C11.8 12.31 11.8 12.29 11.79 12.26L11.63 11.09L12.82 10.92C12.87 10.92 12.92 10.89 12.95 10.85L13.35 10.33C13.37 10.31 13.38 10.29 13.39 10.26C13.39 10.24 13.39 10.21 13.39 10.18L13.19 8.75C13.19 8.7 13.16 8.65 13.12 8.62C13.07 8.58 13.02 8.57 12.96 8.58L11.32 8.81L11.1 7.17C11.09 7.11 11.06 7.06 11.01 7.03C10.98 7 10.93 6.99 10.89 6.99L10.87 6.99L10.87 7Z" fill="url(#paint_linear_1_164_0)" fill-opacity="1.000000" fill-rule="evenodd"/>
		<path id="Vector" d="M9.43 7.19C9.4 7.2 9.37 7.21 9.35 7.22C9.33 7.23 9.31 7.25 9.29 7.27C9.28 7.29 9.26 7.32 9.26 7.34C9.25 7.37 9.25 7.4 9.26 7.42L9.49 9.06L7.85 9.3C7.82 9.3 7.8 9.31 7.77 9.32C7.75 9.34 7.73 9.36 7.72 9.38C7.7 9.4 7.69 9.42 7.68 9.44C7.68 9.47 7.68 9.5 7.68 9.53L7.88 10.96C7.89 11.01 7.91 11.06 7.96 11.09C8 11.12 8.05 11.14 8.11 11.13L9.75 10.9L9.98 12.54C9.99 12.59 10.02 12.64 10.06 12.68C10.11 12.71 10.16 12.72 10.22 12.71L11.66 12.52C11.68 12.51 11.71 12.5 11.73 12.49C11.76 12.48 11.78 12.46 11.79 12.44C11.81 12.42 11.82 12.39 11.83 12.37C11.83 12.34 11.83 12.31 11.83 12.29L11.59 10.65L13.23 10.41C13.26 10.41 13.29 10.4 13.31 10.38C13.33 10.37 13.35 10.35 13.37 10.33C13.38 10.31 13.4 10.29 13.4 10.26C13.41 10.23 13.41 10.21 13.4 10.18L13.21 8.75C13.2 8.7 13.17 8.65 13.13 8.62C13.09 8.58 13.03 8.57 12.98 8.58L11.34 8.81L11.11 7.17C11.1 7.07 11.01 6.99 10.91 7L10.87 7L9.43 7.19Z" fill="url(#paint_linear_1_165_0)" fill-opacity="1.000000" fill-rule="evenodd"/>
		<path id="Vector" d="M12.4 10.02C12.23 10.04 12.06 9.96 11.98 9.81C11.89 9.66 11.9 9.48 12 9.34C12.11 9.2 12.28 9.14 12.45 9.18C12.62 9.23 12.74 9.37 12.77 9.54C12.8 9.77 12.63 9.99 12.4 10.02ZM12.26 8.96C12 9 11.79 9.18 11.72 9.43C11.66 9.69 11.75 9.95 11.95 10.11C12.16 10.27 12.44 10.28 12.67 10.15C12.89 10.02 13.01 9.77 12.98 9.51C12.93 9.16 12.61 8.92 12.26 8.96ZM9.98 8.43L10.23 7.8L10.66 8.34L9.98 8.43ZM10.17 7.38L9.64 8.69L11.05 8.5L10.17 7.38ZM8.36 10.51L8.26 9.78L8.99 9.68L9.09 10.42L8.36 10.51ZM8.02 9.6L8.18 10.76L9.33 10.6L9.17 9.45L8.02 9.6Z" fill="#C3862C" fill-opacity="1.000000" fill-rule="evenodd"/>
		<path id="Vector" d="M10.93 11.66L11.43 12.04L11.3 12.21L10.8 11.83L10.42 12.33L10.24 12.2L10.62 11.7L10.12 11.32L10.25 11.15L10.75 11.53L11.13 11.03L11.31 11.16L10.93 11.66Z" fill="#C3862C" fill-opacity="1.000000" fill-rule="evenodd"/>
	</g>
</svg>
