<svg width="15.000000" height="15.000000" viewBox="0 0 15 15" fill="none" xmlns="http://www.w3.org/2000/svg" xmlns:xlink="http://www.w3.org/1999/xlink">
	<desc>
			Created with Pixso.
	</desc>
	<defs>
		<clipPath id="clip1_185">
			<rect id="small10 1" rx="0.000000" width="14.000000" height="14.000000" transform="translate(0.500000 0.500000)" fill="white" fill-opacity="0"/>
		</clipPath>
		<linearGradient x1="112.024719" y1="111.383820" x2="447.751312" y2="447.114929" id="paint_linear_1_191_0" gradientUnits="userSpaceOnUse">
			<stop stop-color="#C3862C"/>
			<stop offset="1.000000" stop-color="#986D29"/>
		</linearGradient>
		<linearGradient x1="81.540009" y1="124.563385" x2="436.867432" y2="394.575012" id="paint_linear_1_192_0" gradientUnits="userSpaceOnUse">
			<stop offset="0.030000" stop-color="#FDE64E"/>
			<stop offset="1.000000" stop-color="#FCC013"/>
		</linearGradient>
	</defs>
	<rect id="small10 1" rx="0.000000" width="14.000000" height="14.000000" transform="translate(0.500000 0.500000)" fill="#FFFFFF" fill-opacity="0"/>
	<g clip-path="url(#clip1_185)">
		<path id="Vector" d="M5.15 4.49L6.92 4.49L7.26 3.34C7.21 3.29 7.13 3.27 7.06 3.29L3.07 4.36C3.01 4.38 2.97 4.41 2.94 4.46C2.91 4.51 2.9 4.57 2.92 4.63L4.27 9.68L4.27 9.7L4.27 5.36C4.27 5.13 4.36 4.91 4.53 4.74C4.69 4.58 4.92 4.49 5.15 4.49Z" fill="#FFFFFF" fill-opacity="1.000000" fill-rule="nonzero"/>
		<path id="Vector" d="M4.16 11.56L3.73 12.55L3.3 11.56L2.32 11.14L3.3 10.71L3.73 9.72L4.16 10.71L5.15 11.14L4.16 11.56Z" fill="#FFFFFF" fill-opacity="1.000000" fill-rule="nonzero"/>
		<path id="Vector" d="M9.07 3.73C9.07 3.59 9.12 3.44 9.21 3.33L8.27 3.07C8.15 3.05 8.03 3.11 7.99 3.23L7.6 4.49L9.72 4.49C9.77 4.49 9.82 4.5 9.87 4.51L9.46 4.33C9.22 4.23 9.07 3.99 9.07 3.73Z" fill="#FFFFFF" fill-opacity="1.000000" fill-rule="nonzero"/>
		<path id="Vector" d="M11.57 4.16L11.14 5.15L10.71 4.16L9.72 3.73L10.71 3.3L11.14 2.32L11.57 3.3L12.55 3.73L11.57 4.16Z" fill="#FFFFFF" fill-opacity="1.000000" fill-rule="nonzero"/>
		<path id="Vector" d="M7.63 10.21L7.98 9.76C8.04 9.68 8.12 9.61 8.21 9.55C8.31 9.49 8.42 9.46 8.53 9.44L8.93 9.39L8.9 9.18C8.75 9.17 8.61 9.11 8.51 9C8.35 8.8 8.21 8.59 8.09 8.36L6.78 8.36C6.66 8.59 6.52 8.8 6.36 9C6.25 9.11 6.09 9.18 5.93 9.18C5.84 9.18 5.54 9.18 5.55 8.86C5.57 8.54 5.77 7.37 5.77 7.36C5.84 7.04 6.13 6.8 6.46 6.79C6.68 6.83 6.89 6.92 7.06 7.07L7.8 7.07C7.98 6.92 8.18 6.83 8.4 6.79C8.74 6.8 9.03 7.04 9.1 7.37C9.1 7.37 9.16 7.76 9.22 8.15L9.38 7.94C9.44 7.85 9.52 7.78 9.61 7.72C9.71 7.67 9.81 7.63 9.92 7.62L9.93 7.62L9.93 5.36C9.93 5.25 9.84 5.15 9.72 5.15L5.15 5.15C5.03 5.15 4.93 5.25 4.93 5.37L4.93 10.33L5.4 10.54C5.6 10.63 5.75 10.81 5.79 11.03L7.49 11.03L7.47 10.83C7.44 10.61 7.5 10.39 7.63 10.21ZM11.69 7.51L12.62 4.47C12.63 4.45 12.63 4.43 12.62 4.41L12.06 4.65L11.73 5.4C11.64 5.62 11.43 5.77 11.19 5.8C10.95 5.82 10.72 5.7 10.59 5.5L10.59 7.51L11.2 7.43C11.36 7.41 11.53 7.44 11.69 7.51Z" fill="#FFFFFF" fill-opacity="1.000000" fill-rule="nonzero"/>
		<path id="Vector" d="M13.5 10.88L13.33 9.62C13.32 9.57 13.3 9.53 13.26 9.5C13.22 9.47 13.18 9.46 13.13 9.47L11.68 9.67L11.48 8.23C11.47 8.18 11.45 8.14 11.41 8.11C11.37 8.08 11.32 8.07 11.27 8.08L10.01 8.25C9.98 8.26 9.96 8.26 9.94 8.28C9.92 8.29 9.9 8.3 9.89 8.32L9.54 8.77C9.51 8.81 9.5 8.86 9.51 8.91L9.65 9.94L8.61 10.09C8.58 10.09 8.56 10.1 8.54 10.11C8.52 10.12 8.5 10.14 8.49 10.16L8.15 10.61C8.12 10.65 8.11 10.69 8.12 10.74L8.29 12C8.3 12.1 8.39 12.16 8.49 12.15L9.93 11.95L10.13 13.38C10.14 13.43 10.16 13.47 10.2 13.5C10.24 13.53 10.29 13.54 10.33 13.53L11.6 13.36C11.65 13.36 11.69 13.33 11.72 13.29L12.06 12.84C12.08 12.82 12.09 12.8 12.09 12.78C12.1 12.75 12.1 12.73 12.09 12.71L11.95 11.67L13 11.53C13.04 11.52 13.09 11.5 13.12 11.46L13.47 11.01C13.48 10.99 13.49 10.97 13.5 10.95C13.5 10.93 13.5 10.9 13.5 10.88Z" fill="url(#paint_linear_1_191_0)" fill-opacity="1.000000" fill-rule="nonzero"/>
		<path id="Vector" d="M13.5 10.88L13.33 9.62C13.33 9.57 13.3 9.53 13.26 9.5C13.22 9.47 13.18 9.46 13.13 9.47L11.68 9.67L11.48 8.23C11.47 8.18 11.45 8.14 11.41 8.11C11.37 8.08 11.32 8.07 11.27 8.08L10.01 8.25C9.99 8.26 9.96 8.26 9.94 8.28C9.92 8.29 9.9 8.3 9.89 8.32C9.88 8.34 9.87 8.36 9.86 8.38C9.86 8.41 9.86 8.43 9.86 8.45L10.07 9.89L8.63 10.09C8.6 10.09 8.58 10.1 8.56 10.11C8.54 10.12 8.52 10.14 8.51 10.16C8.49 10.17 8.48 10.19 8.48 10.22C8.47 10.24 8.47 10.26 8.48 10.29L8.65 11.55C8.66 11.59 8.68 11.63 8.72 11.66C8.76 11.69 8.81 11.7 8.85 11.7L10.3 11.5L10.49 12.93C10.5 12.98 10.53 13.02 10.56 13.05C10.6 13.08 10.65 13.09 10.7 13.09L11.95 12.91C11.97 12.91 11.99 12.9 12.01 12.89C12.03 12.88 12.05 12.86 12.06 12.84C12.08 12.83 12.09 12.8 12.09 12.78C12.1 12.76 12.1 12.74 12.09 12.71L11.9 11.28L13.35 11.08C13.38 11.08 13.4 11.07 13.42 11.06C13.44 11.04 13.46 11.03 13.47 11.01C13.49 10.99 13.5 10.97 13.5 10.95C13.51 10.93 13.51 10.9 13.5 10.88Z" fill="url(#paint_linear_1_192_0)" fill-opacity="1.000000" fill-rule="nonzero"/>
		<path id="Vector" d="M12.51 9.81C12.28 9.84 12.09 10 12.04 10.22C11.98 10.45 12.06 10.68 12.25 10.82C12.43 10.95 12.68 10.96 12.87 10.84C13.07 10.73 13.17 10.5 13.14 10.27C13.09 9.97 12.81 9.76 12.51 9.81ZM12.63 10.74C12.43 10.77 12.24 10.63 12.22 10.43C12.19 10.23 12.32 10.04 12.52 10.01C12.72 9.97 12.91 10.11 12.95 10.31C12.97 10.41 12.94 10.51 12.88 10.59C12.82 10.67 12.73 10.72 12.63 10.73L12.63 10.74ZM10.67 8.4L10.2 9.56L11.45 9.39L10.67 8.4ZM10.5 9.33L10.72 8.78L11.1 9.25L10.5 9.33ZM8.78 10.37L8.92 11.38L9.93 11.24L9.8 10.23L8.78 10.37ZM9.08 11.17L8.99 10.53L9.63 10.44L9.72 11.08L9.08 11.17Z" fill="#C3862C" fill-opacity="1.000000" fill-rule="nonzero"/>
		<path id="Vector" d="M11.34 12.18L11.78 12.52L11.66 12.67L11.22 12.33L10.89 12.77L10.74 12.65L11.07 12.21L10.63 11.88L10.75 11.73L11.19 12.06L11.52 11.62L11.67 11.73L11.34 12.18Z" fill="#C3862C" fill-opacity="1.000000" fill-rule="nonzero"/>
	</g>
</svg>
