<svg width="15.000000" height="15.000000" viewBox="0 0 15 15" fill="none" xmlns="http://www.w3.org/2000/svg" xmlns:xlink="http://www.w3.org/1999/xlink">
	<desc>
			Created with Pixso.
	</desc>
	<defs>
		<clipPath id="clip1_133">
			<rect id="small4 1" rx="0.000000" width="14.000000" height="14.000000" transform="translate(0.500000 0.500000)" fill="white" fill-opacity="0"/>
		</clipPath>
	</defs>
	<rect id="small4 1" rx="0.000000" width="14.000000" height="14.000000" transform="translate(0.500000 0.500000)" fill="#202562" fill-opacity="1.000000"/>
	<g clip-path="url(#clip1_133)">
		<path id="Vector" d="M10.81 8.27C11.48 8.27 12.13 8.54 12.61 9.01C13.09 9.49 13.35 10.13 13.35 10.81C13.35 12.21 12.22 13.35 10.82 13.35C9.42 13.35 8.28 12.21 8.28 10.81C8.28 9.41 9.41 8.27 10.81 8.27ZM11.83 11.79C11.75 12.11 11.62 12.41 11.45 12.7C11.86 12.56 12.21 12.29 12.46 11.93L12.3 11.89C12.15 11.85 11.99 11.82 11.83 11.79ZM9.78 11.79C9.57 11.82 9.36 11.87 9.16 11.93L9.2 11.99C9.44 12.32 9.78 12.56 10.16 12.69C9.99 12.41 9.86 12.11 9.78 11.79ZM11.29 11.71C10.97 11.69 10.65 11.69 10.33 11.71C10.43 12.06 10.6 12.38 10.82 12.66C11.04 12.38 11.2 12.06 11.29 11.71ZM12.7 10.17C12.45 10.25 12.19 10.31 11.93 10.36C11.95 10.51 11.96 10.65 11.96 10.8C11.96 10.95 11.95 11.1 11.93 11.25C12.19 11.29 12.45 11.36 12.7 11.44C12.77 11.24 12.8 11.02 12.8 10.81C12.8 10.59 12.77 10.38 12.7 10.17ZM8.93 10.18C8.86 10.38 8.82 10.59 8.82 10.81L8.81 10.81C8.82 11.02 8.86 11.24 8.93 11.44C9.18 11.36 9.43 11.3 9.69 11.25C9.67 11.11 9.67 10.96 9.67 10.81C9.67 10.66 9.68 10.51 9.69 10.37C9.43 10.32 9.18 10.26 8.93 10.18ZM11.39 10.44C11.2 10.47 11 10.47 10.81 10.47C10.61 10.47 10.42 10.46 10.23 10.44C10.2 10.68 10.2 10.93 10.23 11.18L10.23 11.18C10.61 11.14 11 11.14 11.39 11.18C11.42 10.93 11.42 10.68 11.39 10.44ZM10.81 8.95C10.59 9.23 10.43 9.56 10.34 9.9C10.66 9.93 10.98 9.93 11.29 9.9L11.29 9.9L11.26 9.81C11.17 9.53 11.04 9.27 10.87 9.03L10.81 8.95ZM4.33 4.8C4.55 4.8 4.77 4.85 4.96 4.96C4.95 5.04 4.95 5.13 4.95 5.21C4.95 5.85 5.18 6.47 5.59 6.96C5.55 7.04 5.51 7.12 5.46 7.19C4.37 7.61 3.81 8.48 3.8 9.8L3.8 9.88L2.05 9.88C2.05 8.88 2.49 8.33 3.51 8.16C3.58 8.15 3.71 8.12 3.75 8.02C3.75 8.01 3.75 7.99 3.75 7.98L3.75 7.96L3.75 7.67C3.23 7.41 2.92 6.88 2.93 6.3C2.91 5.92 3.05 5.54 3.32 5.26C3.58 4.98 3.95 4.81 4.33 4.8ZM7.42 3.25C8.43 3.25 9.25 4.13 9.25 5.21C9.26 5.94 8.88 6.61 8.24 6.97L8.18 7L8.18 7.37C8.19 7.39 8.19 7.42 8.2 7.44C8.24 7.57 8.41 7.61 8.51 7.63C8.84 7.67 9.16 7.77 9.45 7.93C8.66 8.3 8.06 8.97 7.78 9.79L7.76 9.87L4.44 9.87C4.44 8.56 5.01 7.86 6.35 7.63C6.45 7.61 6.62 7.57 6.66 7.44C6.67 7.42 6.67 7.41 6.67 7.39L6.66 7.37L6.66 7C6 6.65 5.59 5.96 5.6 5.21C5.56 4.17 6.38 3.29 7.42 3.25ZM10.17 8.92L10.17 8.92C9.76 9.06 9.41 9.34 9.16 9.7L9.32 9.74C9.47 9.78 9.63 9.81 9.79 9.84C9.87 9.52 10 9.21 10.17 8.92ZM11.46 8.92C11.63 9.21 11.76 9.51 11.84 9.83C12.05 9.8 12.26 9.75 12.47 9.69L12.46 9.69L12.42 9.63C12.19 9.32 11.88 9.09 11.53 8.95L11.46 8.92ZM10.53 4.8C10.91 4.81 11.28 4.98 11.54 5.26C11.81 5.54 11.95 5.92 11.93 6.31C11.94 6.86 11.65 7.37 11.17 7.64C11.05 7.63 10.92 7.62 10.79 7.62C10.59 7.62 10.4 7.64 10.2 7.68C9.96 7.47 9.69 7.31 9.39 7.19C9.34 7.12 9.29 7.04 9.26 6.96C9.67 6.47 9.9 5.85 9.9 5.21C9.9 5.13 9.9 5.05 9.9 4.97C10.09 4.86 10.31 4.8 10.53 4.8Z" fill="#FFFFFF" fill-opacity="1.000000" fill-rule="evenodd"/>
	</g>
</svg>
