<svg width="15.000000" height="15.000000" viewBox="0 0 15 15" fill="none" xmlns="http://www.w3.org/2000/svg" xmlns:xlink="http://www.w3.org/1999/xlink">
	<desc>
			Created with Pixso.
	</desc>
	<defs>
		<clipPath id="clip1_148">
			<rect id="small7 1" rx="0.000000" width="14.000000" height="14.000000" transform="translate(0.500000 0.500000)" fill="white" fill-opacity="0"/>
		</clipPath>
	</defs>
	<rect id="small7 1" rx="0.000000" width="14.000000" height="14.000000" transform="translate(0.500000 0.500000)" fill="#202562" fill-opacity="1.000000"/>
	<g clip-path="url(#clip1_148)">
		<path id="Vector" d="M9.58 10.64C8.82 10.97 8 11.14 7.18 11.13C5.79 11.13 4.54 10.71 3.85 10C3.76 9.9 3.74 9.76 3.81 9.64C3.89 9.53 4.03 9.48 4.16 9.53C5.12 9.91 6.14 10.12 7.18 10.15C7.89 10.14 8.6 10.03 9.29 9.83L9.13 9.41C9.09 9.31 9.11 9.21 9.18 9.13C9.24 9.05 9.35 9.01 9.45 9.03L11.13 9.32C11.24 9.34 11.32 9.41 11.36 9.5C11.39 9.6 11.37 9.71 11.31 9.79L10.21 11.1C10.16 11.16 10.07 11.2 9.99 11.2L9.94 11.2C9.84 11.19 9.75 11.12 9.71 11.02L9.58 10.64ZM6.57 3.75C7.33 3.76 7.96 4.35 8.02 5.11C8.02 5.11 8.13 5.76 8.24 6.46L8.27 6.67C8.35 7.22 8.42 7.76 8.44 8.02C8.48 8.68 7.85 8.68 7.66 8.68C7.33 8.68 7.01 8.55 6.78 8.32C6.45 7.91 6.16 7.47 5.92 7.01L3.22 7.01C2.98 7.47 2.69 7.91 2.36 8.32C2.13 8.55 1.81 8.68 1.48 8.68C1.29 8.68 0.66 8.68 0.7 8.02C0.72 7.76 0.79 7.22 0.87 6.68L0.9 6.46C0.97 6.02 1.04 5.6 1.08 5.35L1.1 5.27C1.11 5.17 1.12 5.11 1.12 5.11C1.18 4.35 1.81 3.76 2.57 3.75C3.02 3.75 3.41 4.07 3.81 4.31L5.33 4.31C5.37 4.29 5.41 4.26 5.45 4.24L5.57 4.16C5.89 3.95 6.21 3.75 6.57 3.75ZM12.05 3.77C12.93 3.78 13.66 4.45 13.74 5.32C13.78 5.59 14.02 7.04 14.05 7.52C14.08 7.8 13.99 8.09 13.8 8.31C13.55 8.55 13.21 8.67 12.86 8.65C12.43 8.65 12.03 8.47 11.74 8.16C11.54 7.92 11.37 7.67 11.21 7.4L9.92 7.4C9.77 7.67 9.59 7.92 9.4 8.16C9.29 8.29 9.15 8.4 8.99 8.47C9.04 8.31 9.06 8.15 9.05 7.98C9.05 7.88 9.03 7.78 9.02 7.65C9.22 7.38 9.41 7.09 9.57 6.79L11.57 6.79C11.75 7.14 11.96 7.47 12.21 7.77C12.38 7.94 12.62 8.04 12.86 8.04C13.01 8.04 13.47 8.05 13.44 7.56C13.41 7.07 13.12 5.39 13.12 5.39C13.08 4.83 12.61 4.39 12.05 4.38C11.71 4.38 11.42 4.61 11.13 4.8L10 4.8C9.7 4.61 9.41 4.38 9.08 4.38C8.88 4.38 8.68 4.43 8.52 4.54C8.45 4.35 8.35 4.17 8.23 4C8.49 3.85 8.78 3.77 9.08 3.77C9.48 3.79 9.86 3.94 10.18 4.19L10.95 4.19C11.27 3.94 11.65 3.79 12.05 3.77Z" fill="#FFFFFF" fill-opacity="1.000000" fill-rule="evenodd"/>
	</g>
</svg>
