<svg width="15.000000" height="15.000000" viewBox="0 0 15 15" fill="none" xmlns="http://www.w3.org/2000/svg" xmlns:xlink="http://www.w3.org/1999/xlink">
	<desc>
			Created with Pixso.
	</desc>
	<defs>
		<clipPath id="clip1_138">
			<rect id="small3 1" rx="0.000000" width="14.000000" height="14.000000" transform="translate(0.500000 0.500000)" fill="white" fill-opacity="0"/>
		</clipPath>
	</defs>
	<rect id="small3 1" rx="0.000000" width="14.000000" height="14.000000" transform="translate(0.500000 0.500000)" fill="#202562" fill-opacity="1.000000"/>
	<g clip-path="url(#clip1_138)">
		<path id="Vector" d="M12.33 11.76C12.31 11.32 12.02 9.59 12.02 9.58C11.92 9.1 11.5 8.75 11.01 8.74C10.69 8.74 10.42 8.97 10.14 9.14L9.06 9.14C8.78 8.97 8.51 8.74 8.19 8.74C7.7 8.75 7.28 9.1 7.18 9.58C7.18 9.59 6.9 11.32 6.87 11.76C6.84 12.2 7.28 12.23 7.42 12.23C7.65 12.23 7.88 12.14 8.04 11.98C8.28 11.69 8.48 11.37 8.65 11.04L10.55 11.04C10.72 11.37 10.93 11.69 11.16 11.98C11.33 12.14 11.55 12.23 11.78 12.23C11.92 12.22 12.36 12.22 12.33 11.76ZM10.16 5.25L8.87 5.25C9.29 5.06 9.55 4.64 9.55 4.19C9.55 3.44 8.99 2.91 8.19 2.91C7.69 2.91 7.06 3.27 6.67 3.9C6.28 3.28 5.66 2.91 5.15 2.91C4.35 2.91 3.79 3.44 3.79 4.19C3.79 4.64 4.05 5.06 4.47 5.25L3.19 5.25C3.07 5.25 2.97 5.35 2.97 5.47L2.97 6.67C2.97 6.79 3.07 6.89 3.19 6.89L6.13 6.89L6.13 5.25L7.22 5.25L7.22 6.89L10.16 6.89C10.21 6.89 10.27 6.87 10.31 6.83C10.35 6.79 10.37 6.73 10.37 6.67L10.37 5.47C10.37 5.35 10.28 5.25 10.16 5.25ZM4.56 4.19C4.56 4.04 4.63 3.89 4.74 3.8C4.85 3.7 5 3.66 5.15 3.68C5.48 3.68 6.09 4.09 6.25 4.87C5.4 4.83 4.56 4.68 4.56 4.19ZM7.09 4.87C7.25 4.09 7.85 3.68 8.19 3.68C8.34 3.65 8.49 3.7 8.6 3.8C8.72 3.89 8.78 4.04 8.78 4.19C8.78 4.68 7.94 4.83 7.09 4.87ZM3.41 9.84C3.41 10.08 3.6 10.27 3.84 10.27L6.13 10.27L6.13 7.43L3.41 7.43L3.41 9.84ZM7.22 8.41C7.5 8.2 7.85 8.09 8.2 8.09C8.59 8.11 8.96 8.25 9.27 8.49L9.95 8.49L9.95 7.43L7.22 7.43L7.22 8.41Z" fill="#FFFFFF" fill-opacity="1.000000" fill-rule="evenodd"/>
	</g>
</svg>
