<svg width="15.000000" height="15.000000" viewBox="0 0 15 15" fill="none" xmlns="http://www.w3.org/2000/svg" xmlns:xlink="http://www.w3.org/1999/xlink">
	<desc>
			Created with Pixso.
	</desc>
	<defs>
		<clipPath id="clip1_143">
			<rect id="small5 1" rx="0.000000" width="14.000000" height="14.000000" transform="translate(0.500000 0.500000)" fill="white" fill-opacity="0"/>
		</clipPath>
	</defs>
	<rect id="small5 1" rx="0.000000" width="14.000000" height="14.000000" transform="translate(0.500000 0.500000)" fill="#202562" fill-opacity="1.000000"/>
	<g clip-path="url(#clip1_143)">
		<path id="Vector" d="M10.39 2.81C10.54 2.81 10.69 2.87 10.8 2.98L11.81 3.98C11.91 4.09 11.97 4.24 11.98 4.39L11.98 6.95C11.97 7.1 11.91 7.25 11.81 7.36L7.26 11.91C7.22 11.95 7.15 11.98 7.09 11.98C7.03 11.98 6.97 11.95 6.92 11.91L2.88 7.86C2.83 7.82 2.81 7.76 2.81 7.69C2.81 7.63 2.83 7.57 2.88 7.53L7.43 2.98C7.54 2.87 7.69 2.82 7.84 2.81L10.39 2.81ZM6.97 8.28C6.57 8.68 6.5 9.12 6.84 9.46C7.18 9.8 7.63 9.74 8.03 9.33L8.02 9.33C8.43 8.92 8.49 8.47 8.16 8.14C7.83 7.81 7.38 7.87 6.97 8.28ZM7.33 8.64C7.53 8.43 7.73 8.33 7.85 8.44C7.96 8.56 7.86 8.76 7.66 8.97C7.45 9.18 7.25 9.26 7.14 9.15C7.03 9.04 7.12 8.84 7.33 8.64ZM9.03 6.84L5.21 7.84L5.56 8.18L9.37 7.18L9.03 6.84ZM6.56 5.68C6.14 6.09 6.09 6.52 6.43 6.86C6.77 7.2 7.2 7.14 7.61 6.73C8.02 6.32 8.08 5.87 7.75 5.54C7.41 5.21 6.97 5.26 6.56 5.68ZM7.43 5.84C7.55 5.96 7.46 6.16 7.25 6.37C7.04 6.58 6.83 6.67 6.72 6.56C6.61 6.44 6.7 6.25 6.91 6.04C7.12 5.83 7.32 5.73 7.43 5.84ZM10.21 3.98L10.16 3.99C9.98 4 9.82 4.09 9.71 4.23C9.43 4.46 9.4 4.87 9.62 5.15C9.91 5.39 10.33 5.35 10.56 5.07C10.84 4.83 10.88 4.42 10.65 4.14C10.54 4.05 10.4 3.99 10.26 3.99L10.21 3.98Z" fill="#FFFFFF" fill-opacity="1.000000" fill-rule="nonzero"/>
	</g>
</svg>
