<svg width="15.000000" height="15.000000" viewBox="0 0 15 15" fill="none" xmlns="http://www.w3.org/2000/svg" xmlns:xlink="http://www.w3.org/1999/xlink">
	<desc>
			Created with Pixso.
	</desc>
	<defs>
		<clipPath id="clip1_153">
			<rect id="small9 1" rx="0.000000" width="14.000000" height="14.000000" transform="translate(0.500000 0.500000)" fill="white" fill-opacity="0"/>
		</clipPath>
		<linearGradient x1="112.024719" y1="111.383820" x2="447.751312" y2="447.114929" id="paint_linear_1_155_0" gradientUnits="userSpaceOnUse">
			<stop stop-color="#C3862C"/>
			<stop offset="1.000000" stop-color="#986D29"/>
		</linearGradient>
		<linearGradient x1="81.519775" y1="124.498016" x2="436.848785" y2="394.511017" id="paint_linear_1_156_0" gradientUnits="userSpaceOnUse">
			<stop offset="0.030000" stop-color="#FDE64E"/>
			<stop offset="1.000000" stop-color="#FCC013"/>
		</linearGradient>
	</defs>
	<rect id="small9 1" rx="0.000000" width="14.000000" height="14.000000" transform="translate(0.500000 0.500000)" fill="#FFFFFF" fill-opacity="0"/>
	<g clip-path="url(#clip1_153)">
		<path id="Vector" d="M8.21 9.55C8.31 9.49 8.41 9.45 8.53 9.44L8.92 9.38L8.87 9C8.84 8.78 8.9 8.56 9.03 8.38L9.37 7.92C9.43 7.84 9.51 7.77 9.6 7.71C9.7 7.66 9.8 7.62 9.9 7.61L11.18 7.43C11.4 7.4 11.62 7.46 11.8 7.59C11.97 7.73 12.09 7.92 12.12 8.14L12.22 8.93L12.44 8.9C12.75 8.23 12.7 7.44 12.3 6.81C11.9 6.18 11.21 5.8 10.46 5.8C10.41 5.8 10.35 5.8 10.29 5.8C9.82 4.52 8.53 3.73 7.18 3.9C5.83 4.06 4.77 5.13 4.61 6.48C4.05 6.58 3.56 6.93 3.29 7.43C3.02 7.94 3 8.54 3.24 9.06L2.04 9.75C1.95 9.8 1.91 9.9 1.94 9.99C1.96 10.09 2.05 10.15 2.15 10.16L7.67 10.16L7.98 9.76C8.04 9.67 8.12 9.6 8.21 9.55Z" fill="#FFFFFF" fill-opacity="1.000000" fill-rule="nonzero"/>
		<path id="Vector" d="M13.5 10.88L13.33 9.62C13.32 9.57 13.3 9.53 13.26 9.5C13.22 9.47 13.18 9.46 13.13 9.47L11.68 9.67L11.48 8.23C11.47 8.18 11.45 8.14 11.41 8.11C11.37 8.08 11.32 8.07 11.27 8.08L10.01 8.25C9.98 8.26 9.96 8.26 9.94 8.28C9.92 8.29 9.9 8.3 9.89 8.32L9.54 8.77C9.51 8.81 9.5 8.86 9.51 8.91L9.65 9.94L8.61 10.09C8.58 10.09 8.56 10.1 8.54 10.11C8.52 10.12 8.5 10.14 8.49 10.16L8.15 10.61C8.12 10.65 8.11 10.69 8.12 10.74L8.29 12C8.3 12.1 8.39 12.16 8.49 12.15L9.93 11.95L10.13 13.38C10.14 13.43 10.16 13.47 10.2 13.5C10.24 13.53 10.29 13.54 10.33 13.53L11.6 13.36C11.65 13.36 11.69 13.33 11.72 13.29L12.06 12.84C12.08 12.82 12.09 12.8 12.09 12.78C12.1 12.75 12.1 12.73 12.09 12.71L11.95 11.67L13 11.53C13.04 11.52 13.09 11.5 13.12 11.46L13.47 11.01C13.48 10.99 13.49 10.97 13.5 10.95C13.5 10.93 13.5 10.9 13.5 10.88Z" fill="url(#paint_linear_1_155_0)" fill-opacity="1.000000" fill-rule="nonzero"/>
		<path id="Vector" d="M13.5 10.88L13.33 9.62C13.33 9.57 13.3 9.53 13.26 9.5C13.22 9.47 13.18 9.46 13.13 9.47L11.68 9.67L11.48 8.23C11.47 8.18 11.45 8.14 11.41 8.11C11.37 8.08 11.32 8.07 11.27 8.08L10.01 8.25C9.99 8.26 9.96 8.26 9.94 8.28C9.92 8.29 9.9 8.3 9.89 8.32C9.88 8.34 9.87 8.36 9.86 8.38C9.86 8.41 9.86 8.43 9.86 8.45L10.07 9.89L8.63 10.09C8.6 10.09 8.58 10.1 8.56 10.11C8.54 10.12 8.52 10.14 8.51 10.16C8.49 10.17 8.48 10.19 8.48 10.22C8.47 10.24 8.47 10.26 8.48 10.29L8.65 11.55C8.66 11.59 8.68 11.63 8.72 11.66C8.76 11.69 8.81 11.7 8.85 11.7L10.3 11.5L10.49 12.93C10.5 12.98 10.53 13.02 10.56 13.05C10.6 13.08 10.65 13.09 10.7 13.09L11.95 12.91C11.97 12.91 11.99 12.9 12.01 12.89C12.03 12.88 12.05 12.86 12.06 12.84C12.08 12.83 12.09 12.8 12.09 12.78C12.1 12.76 12.1 12.74 12.09 12.71L11.9 11.28L13.35 11.08C13.38 11.08 13.4 11.07 13.42 11.06C13.44 11.04 13.46 11.03 13.47 11.01C13.49 10.99 13.5 10.97 13.5 10.95C13.51 10.93 13.51 10.9 13.5 10.88Z" fill="url(#paint_linear_1_156_0)" fill-opacity="1.000000" fill-rule="nonzero"/>
		<path id="Vector" d="M12.51 9.81C12.28 9.84 12.09 10 12.04 10.22C11.98 10.45 12.06 10.68 12.25 10.82C12.43 10.95 12.68 10.96 12.87 10.84C13.07 10.73 13.17 10.5 13.14 10.27C13.09 9.97 12.81 9.76 12.51 9.81ZM12.63 10.74C12.43 10.77 12.24 10.63 12.22 10.43C12.19 10.23 12.32 10.04 12.52 10.01C12.72 9.97 12.91 10.11 12.95 10.31C12.97 10.41 12.94 10.51 12.88 10.59C12.82 10.67 12.73 10.72 12.63 10.73L12.63 10.74ZM10.67 8.4L10.2 9.56L11.45 9.39L10.67 8.4ZM10.5 9.33L10.72 8.78L11.1 9.25L10.5 9.33ZM8.78 10.37L8.92 11.38L9.93 11.24L9.8 10.23L8.78 10.37ZM9.08 11.17L8.99 10.53L9.63 10.44L9.72 11.08L9.08 11.17Z" fill="#C3862C" fill-opacity="1.000000" fill-rule="nonzero"/>
		<path id="Vector" d="M11.34 12.18L11.78 12.52L11.66 12.67L11.22 12.33L10.89 12.77L10.74 12.65L11.07 12.21L10.63 11.88L10.75 11.73L11.19 12.06L11.52 11.62L11.67 11.73L11.34 12.18Z" fill="#C3862C" fill-opacity="1.000000" fill-rule="nonzero"/>
	</g>
</svg>
