<svg width="15.000000" height="15.000000" viewBox="0 0 15 15" fill="none" xmlns="http://www.w3.org/2000/svg" xmlns:xlink="http://www.w3.org/1999/xlink">
	<desc>
			Created with Pixso.
	</desc>
	<defs>
		<clipPath id="clip1_171">
			<rect id="small8 1" rx="0.000000" width="14.000000" height="14.000000" transform="translate(0.500000 0.500000)" fill="white" fill-opacity="0"/>
		</clipPath>
		<linearGradient x1="112.613861" y1="111.884369" x2="447.549133" y2="446.825867" id="paint_linear_1_178_0" gradientUnits="userSpaceOnUse">
			<stop stop-color="#C3862C"/>
			<stop offset="1.000000" stop-color="#986D29"/>
		</linearGradient>
		<linearGradient x1="82.645111" y1="124.998352" x2="438.104980" y2="395.107422" id="paint_linear_1_179_0" gradientUnits="userSpaceOnUse">
			<stop offset="0.030000" stop-color="#FDE64E"/>
			<stop offset="1.000000" stop-color="#FCC013"/>
		</linearGradient>
	</defs>
	<rect id="small8 1" rx="0.000000" width="14.000000" height="14.000000" transform="translate(0.500000 0.500000)" fill="#FFFFFF" fill-opacity="0"/>
	<g clip-path="url(#clip1_171)">
		<path id="Vector" d="M1.64 6.44L2.07 6.44" stroke="#FFFFFF" stroke-opacity="1.000000" stroke-width="2.500000" stroke-linejoin="round" stroke-linecap="round"/>
		<path id="Vector" d="M9.14 3.52L9.45 3.21" stroke="#FFFFFF" stroke-opacity="1.000000" stroke-width="2.500000" stroke-linejoin="round" stroke-linecap="round"/>
		<path id="Vector" d="M6.21 2.31L6.21 1.87" stroke="#FFFFFF" stroke-opacity="1.000000" stroke-width="2.500000" stroke-linejoin="round" stroke-linecap="round"/>
		<path id="Vector" d="M3.28 3.52L2.98 3.21" stroke="#FFFFFF" stroke-opacity="1.000000" stroke-width="2.500000" stroke-linejoin="round" stroke-linecap="round"/>
		<path id="Vector" d="M8.26 7.47C8.7 6.59 8.52 5.52 7.83 4.83C6.94 3.93 5.49 3.93 4.59 4.83C3.9 5.52 3.72 6.59 4.17 7.47L5.13 9.27C5.17 9.34 5.25 9.38 5.33 9.38L7.09 9.38C7.17 9.38 7.25 9.34 7.29 9.27L8.26 7.47ZM7.12 10.31C7.11 10.46 6.98 10.58 6.83 10.58L5.59 10.58C5.44 10.58 5.32 10.46 5.32 10.31C5.32 10.16 5.44 10.04 5.59 10.04L6.83 10.04C6.98 10.03 7.11 10.15 7.12 10.31ZM6.76 11.25L5.67 11.25C5.68 11.53 5.92 11.76 6.21 11.76C6.5 11.76 6.74 11.53 6.76 11.25Z" fill="#FFFFFF" fill-opacity="1.000000" fill-rule="nonzero"/>
		<path id="Vector" d="M6.21 8.73C7.47 8.73 8.5 7.71 8.5 6.45C8.5 5.18 7.47 4.16 6.21 4.16C4.95 4.16 3.92 5.18 3.92 6.45C3.92 7.71 4.95 8.73 6.21 8.73Z" fill="#FFFFFF" fill-opacity="1.000000" fill-rule="nonzero"/>
		<path id="Vector" d="M13.32 10.5L13.15 9.25C13.14 9.2 13.12 9.16 13.08 9.13C13.04 9.1 12.99 9.09 12.95 9.09L11.5 9.29L11.3 7.86C11.3 7.81 11.28 7.76 11.24 7.73C11.21 7.7 11.16 7.69 11.11 7.69L9.84 7.88C9.79 7.88 9.75 7.91 9.72 7.95L9.37 8.4C9.34 8.44 9.33 8.49 9.33 8.53L9.47 9.57L8.43 9.71C8.41 9.72 8.38 9.72 8.36 9.74C8.34 9.75 8.33 9.76 8.31 9.78L7.96 10.24C7.94 10.27 7.92 10.32 7.93 10.37L8.1 11.62C8.11 11.67 8.13 11.71 8.17 11.74C8.21 11.77 8.26 11.78 8.3 11.78L9.75 11.58L9.95 13.01C9.95 13.06 9.98 13.1 10.01 13.13C10.05 13.16 10.1 13.17 10.15 13.17L11.41 12.99C11.46 12.99 11.5 12.96 11.53 12.92L11.88 12.47C11.89 12.45 11.9 12.43 11.91 12.41C11.91 12.38 11.91 12.36 11.91 12.34L11.77 11.3L12.81 11.16C12.86 11.15 12.9 11.13 12.93 11.09L13.28 10.64C13.3 10.62 13.31 10.6 13.31 10.57C13.32 10.55 13.32 10.53 13.32 10.5Z" fill="url(#paint_linear_1_178_0)" fill-opacity="1.000000" fill-rule="nonzero"/>
		<path id="Vector" d="M13.32 10.5L13.15 9.25C13.14 9.2 13.12 9.16 13.08 9.13C13.04 9.1 12.99 9.09 12.95 9.09L11.5 9.29L11.3 7.86C11.3 7.81 11.28 7.76 11.24 7.73C11.21 7.7 11.16 7.69 11.11 7.69L9.84 7.88C9.79 7.88 9.75 7.91 9.72 7.95C9.71 7.97 9.7 7.99 9.69 8.01C9.68 8.03 9.68 8.06 9.69 8.08L9.89 9.51L8.43 9.71C8.41 9.72 8.39 9.72 8.36 9.74C8.35 9.75 8.33 9.76 8.32 9.78C8.3 9.8 8.29 9.82 8.28 9.84C8.28 9.86 8.28 9.89 8.28 9.91L8.46 11.17C8.47 11.27 8.56 11.33 8.66 11.32L10.1 11.13L10.31 12.56C10.31 12.61 10.34 12.65 10.38 12.68C10.41 12.71 10.46 12.72 10.51 12.71L11.77 12.54C11.8 12.54 11.82 12.53 11.84 12.52C11.88 12.49 11.91 12.45 11.92 12.41C11.93 12.38 11.93 12.36 11.92 12.34L11.71 10.9L13.16 10.71C13.18 10.7 13.2 10.69 13.23 10.68C13.25 10.67 13.26 10.65 13.28 10.64C13.29 10.62 13.3 10.6 13.31 10.57C13.32 10.55 13.32 10.53 13.32 10.5Z" fill="url(#paint_linear_1_179_0)" fill-opacity="1.000000" fill-rule="nonzero"/>
		<path id="Vector" d="M12.32 9.43C12.01 9.47 11.8 9.76 11.84 10.06C11.88 10.37 12.17 10.59 12.47 10.55C12.78 10.5 13 10.22 12.96 9.91C12.94 9.77 12.86 9.63 12.74 9.54C12.62 9.45 12.47 9.41 12.32 9.43ZM12.45 10.37C12.3 10.39 12.15 10.32 12.07 10.19C12 10.06 12.01 9.89 12.1 9.77C12.19 9.65 12.35 9.6 12.49 9.63C12.64 9.67 12.75 9.8 12.77 9.95C12.79 10.15 12.65 10.33 12.45 10.36L12.45 10.37ZM10.49 8.03L10.02 9.19L11.26 9.02L10.49 8.03ZM10.32 8.96L10.54 8.4L10.91 8.87L10.32 8.96ZM8.6 9.99L8.74 11.01L9.75 10.87L9.6 9.85L8.6 9.99ZM8.9 10.8L8.81 10.15L9.45 10.07L9.54 10.72L8.9 10.8Z" fill="#C3862C" fill-opacity="1.000000" fill-rule="nonzero"/>
		<path id="Vector" d="M11.15 11.8L11.59 12.14L11.48 12.29L11.04 11.95L10.7 12.39L10.55 12.27L10.88 11.84L10.45 11.5L10.56 11.35L11.01 11.69L11.33 11.25L11.48 11.36L11.15 11.8Z" fill="#C3862C" fill-opacity="1.000000" fill-rule="nonzero"/>
	</g>
</svg>
